<?xml version="1.0" standalone="no"?>
<!DOCTYPE svg PUBLIC "-//W3C//DTD SVG 20010904//EN"
 "http://www.w3.org/TR/2001/REC-SVG-20010904/DTD/svg10.dtd">
<svg version="1.0" xmlns="http://www.w3.org/2000/svg"
 width="400.000000pt" height="400.000000pt" viewBox="0 0 400.000000 400.000000"
 preserveAspectRatio="xMidYMid meet">
<metadata>
Created by potrace 1.11, written by Peter Selinger 2001-2013
</metadata>
<g transform="translate(0.000000,400.000000) scale(0.100000,-0.100000)"
fill="#000000" stroke="none">
<path d="M805 3366 c-51 -19 -110 -82 -124 -132 -6 -22 -11 -68 -11 -104 0
-104 29 -152 170 -289 118 -115 150 -161 150 -216 0 -57 -47 -105 -101 -105
-31 0 -77 52 -89 101 l-11 44 -70 -3 c-59 -3 -69 -6 -69 -22 0 -37 39 -142 65
-176 73 -96 249 -112 341 -32 56 49 78 101 79 183 0 110 -38 179 -170 301
-111 102 -145 154 -145 218 0 122 127 149 161 35 11 -35 16 -40 36 -34 13 3
44 8 69 12 l46 6 -6 41 c-10 62 -50 122 -102 152 -56 33 -158 42 -219 20z"/>
<path d="M1213 3348 c3 -13 40 -236 83 -495 l78 -473 71 0 71 0 38 263 c33
231 46 302 46 257 0 -14 67 -450 76 -492 5 -27 7 -28 74 -28 l69 0 6 33 c10
59 145 940 145 949 0 5 -35 8 -77 6 l-77 -3 -32 -235 c-17 -129 -33 -244 -35
-255 -3 -11 -19 81 -37 205 -18 124 -35 240 -39 258 l-5 32 -78 0 -77 0 -23
-172 c-41 -309 -45 -335 -52 -308 -3 14 -21 127 -39 253 l-33 227 -79 0 c-77
0 -79 -1 -74 -22z"/>
<path d="M2100 2875 l0 -495 75 0 75 0 2 298 3 297 38 -170 c22 -93 52 -227
69 -297 l30 -128 58 0 c47 0 60 3 64 18 2 9 31 145 63 302 l58 285 3 -302 2
-303 75 0 75 0 0 495 0 495 -104 0 -104 0 -10 -47 c-6 -27 -34 -180 -63 -340
-29 -161 -56 -293 -59 -293 -3 0 -34 152 -70 338 l-65 337 -108 3 -107 3 0
-496z"/>
<path d="M2920 2875 l0 -495 75 0 75 0 0 190 0 190 58 0 c80 0 127 16 173 57
71 64 83 100 84 243 0 148 -15 200 -75 254 -52 47 -92 56 -252 56 l-138 0 0
-495z m295 320 c23 -22 25 -31 25 -124 0 -55 -3 -107 -6 -116 -10 -25 -59 -45
-114 -45 l-50 0 0 155 0 155 60 0 c51 0 65 -4 85 -25z"/>
<path d="M1930 2263 l-1325 -3 -235 -235 -235 -235 3 -560 2 -560 1855 0 1855
0 2 560 3 560 -240 240 -240 240 -60 -2 c-33 -2 -656 -4 -1385 -5z m1607 -305
l213 -212 0 -488 0 -488 -1755 0 -1755 0 0 488 0 488 213 212 213 212 1329 0
1329 0 213 -212z"/>
<path d="M3110 1243 l0 -313 50 0 50 0 0 309 0 309 -50 4 -50 3 0 -312z m78 0
l2 -283 -25 0 -25 0 0 286 0 285 23 -3 22 -3 3 -282z"/>
<path d="M3260 1243 l0 -313 53 0 52 0 0 309 0 309 -53 4 -52 3 0 -312z m78 0
l2 -283 -25 0 -25 0 0 286 0 285 23 -3 22 -3 3 -282z"/>
<path d="M3410 1240 l0 -310 55 0 55 0 0 310 0 310 -55 0 -55 0 0 -310z m78 3
l2 -283 -25 0 -25 0 0 286 0 285 23 -3 22 -3 3 -282z"/>
<path d="M440 1485 l0 -55 800 0 800 0 0 55 0 55 -800 0 -800 0 0 -55z m1570
0 l0 -25 -770 0 -770 0 0 25 0 25 770 0 770 0 0 -25z"/>
<path d="M2718 1509 c-21 -12 -24 -59 -6 -77 7 -7 24 -12 38 -12 51 0 69 55
28 84 -26 18 -36 19 -60 5z m49 -35 c8 -21 -13 -42 -28 -27 -13 13 -5 43 11
43 6 0 13 -7 17 -16z"/>
<path d="M440 1315 l0 -55 800 0 800 0 0 55 0 55 -800 0 -800 0 0 -55z m1570
0 l0 -25 -770 0 -770 0 0 25 0 25 770 0 770 0 0 -25z"/>
<path d="M2718 1359 c-21 -12 -24 -59 -6 -77 7 -7 24 -12 38 -12 51 0 69 55
28 84 -26 18 -36 19 -60 5z m59 -51 c-3 -8 -6 -5 -6 6 -1 11 2 17 5 13 3 -3 4
-12 1 -19z"/>
<path d="M2718 1209 c-21 -12 -24 -59 -6 -77 15 -15 61 -15 76 0 19 19 14 55
-10 72 -26 18 -36 19 -60 5z m49 -35 c7 -18 -17 -38 -31 -24 -11 11 -1 40 14
40 6 0 13 -7 17 -16z"/>
<path d="M440 1145 l0 -55 800 0 800 0 0 55 0 55 -800 0 -800 0 0 -55z m1570
0 l0 -25 -770 0 -770 0 0 25 0 25 770 0 770 0 0 -25z"/>
<path d="M2718 1059 c-21 -12 -24 -59 -6 -77 15 -15 61 -15 76 0 19 19 14 55
-10 72 -26 18 -36 19 -60 5z m49 -35 c8 -21 -13 -42 -28 -27 -13 13 -5 43 11
43 6 0 13 -7 17 -16z"/>
<path d="M440 983 l0 -53 800 0 800 0 0 53 0 52 -800 0 -800 0 0 -52z m1575
-3 l0 -25 -770 0 -770 0 -3 28 -3 27 773 -2 773 -3 0 -25z"/>
</g>
</svg>
